<svg preserveAspectRatio="none" width="100%" height="100%" overflow="visible" style="display: block;" viewBox="0 0 30 30" fill="none" xmlns="http://www.w3.org/2000/svg">
<g id="tabler-icon-sun-high">
<path id="Vector" d="M7.92961 22.0703L6.16211 23.8378M7.92961 7.92961L6.16211 6.16211M22.0703 7.92961L23.8378 6.16211M22.0703 22.0703L23.8378 23.8378M5 15H2.5M15 5V2.5M25 15H27.5M15 25V27.5M18.537 18.5354C19.0146 18.0742 19.3955 17.5224 19.6575 16.9124C19.9196 16.3024 20.0575 15.6463 20.0633 14.9824C20.0691 14.3185 19.9425 13.6601 19.6911 13.0456C19.4397 12.4312 19.0685 11.8729 18.599 11.4034C18.1295 10.934 17.5713 10.5627 16.9568 10.3113C16.3423 10.0599 15.6839 9.93338 15.02 9.93915C14.3561 9.94492 13.7 10.0829 13.09 10.3449C12.48 10.6069 11.9283 10.9879 11.467 11.4654C10.5562 12.4084 10.0523 13.6714 10.0637 14.9824C10.0751 16.2934 10.6009 17.5475 11.5279 18.4745C12.455 19.4015 13.709 19.9274 15.02 19.9388C16.331 19.9502 17.594 19.4462 18.537 18.5354Z" stroke="#8A8170" stroke-width="2" stroke-linecap="round" stroke-linejoin="round"/>
</g>
</svg>
