<svg preserveAspectRatio="none" width="100%" height="100%" overflow="visible" style="display: block;" viewBox="0 0 30 30" fill="none" xmlns="http://www.w3.org/2000/svg">
<g id="tabler-icon-pencil">
<path id="Vector" d="M16.875 8.125L21.875 13.125M5 25.0004H10L23.125 11.8754C23.4533 11.5471 23.7137 11.1573 23.8914 10.7284C24.0691 10.2994 24.1605 9.83967 24.1605 9.37538C24.1605 8.91108 24.0691 8.45134 23.8914 8.02239C23.7137 7.59344 23.4533 7.20368 23.125 6.87538C22.7967 6.54707 22.4069 6.28665 21.978 6.10897C21.549 5.93129 21.0893 5.83984 20.625 5.83984C20.1607 5.83984 19.701 5.93129 19.272 6.10897C18.8431 6.28665 18.4533 6.54707 18.125 6.87538L5 20.0004V25.0004Z" stroke="#8A8170" stroke-width="2" stroke-linecap="round" stroke-linejoin="round"/>
</g>
</svg>
