<svg preserveAspectRatio="none" width="100%" height="100%" overflow="visible" style="display: block;" viewBox="0 0 30 30" fill="none" xmlns="http://www.w3.org/2000/svg">
<g id="tabler-icon-users-group">
<path id="Vector" d="M10 26.25V25C10 24.337 10.2634 23.7011 10.7322 23.2322C11.2011 22.7634 11.837 22.5 12.5 22.5H17.5C18.163 22.5 18.7989 22.7634 19.2678 23.2322C19.7366 23.7011 20 24.337 20 25V26.25M21.25 12.5H23.75C24.413 12.5 25.0489 12.7634 25.5178 13.2322C25.9866 13.7011 26.25 14.337 26.25 15V16.25M3.75 16.25V15C3.75 14.337 4.01339 13.7011 4.48223 13.2322C4.95107 12.7634 5.58696 12.5 6.25 12.5H8.75M12.5 16.25C12.5 16.913 12.7634 17.5489 13.2322 18.0178C13.7011 18.4866 14.337 18.75 15 18.75C15.663 18.75 16.2989 18.4866 16.7678 18.0178C17.2366 17.5489 17.5 16.913 17.5 16.25C17.5 15.587 17.2366 14.9511 16.7678 14.4822C16.2989 14.0134 15.663 13.75 15 13.75C14.337 13.75 13.7011 14.0134 13.2322 14.4822C12.7634 14.9511 12.5 15.587 12.5 16.25ZM18.75 6.25C18.75 6.91304 19.0134 7.54893 19.4822 8.01777C19.9511 8.48661 20.587 8.75 21.25 8.75C21.913 8.75 22.5489 8.48661 23.0178 8.01777C23.4866 7.54893 23.75 6.91304 23.75 6.25C23.75 5.58696 23.4866 4.95107 23.0178 4.48223C22.5489 4.01339 21.913 3.75 21.25 3.75C20.587 3.75 19.9511 4.01339 19.4822 4.48223C19.0134 4.95107 18.75 5.58696 18.75 6.25ZM6.25 6.25C6.25 6.91304 6.51339 7.54893 6.98223 8.01777C7.45107 8.48661 8.08696 8.75 8.75 8.75C9.41304 8.75 10.0489 8.48661 10.5178 8.01777C10.9866 7.54893 11.25 6.91304 11.25 6.25C11.25 5.58696 10.9866 4.95107 10.5178 4.48223C10.0489 4.01339 9.41304 3.75 8.75 3.75C8.08696 3.75 7.45107 4.01339 6.98223 4.48223C6.51339 4.95107 6.25 5.58696 6.25 6.25Z" stroke="#8A8170" stroke-width="2" stroke-linecap="round" stroke-linejoin="round"/>
</g>
</svg>
