<svg preserveAspectRatio="none" width="100%" height="100%" overflow="visible" style="display: block;" viewBox="0 0 30 30" fill="none" xmlns="http://www.w3.org/2000/svg">
<g id="tabler-icon-briefcase">
<path id="Vector" d="M10 8.75V6.25C10 5.58696 10.2634 4.95107 10.7322 4.48223C11.2011 4.01339 11.837 3.75 12.5 3.75H17.5C18.163 3.75 18.7989 4.01339 19.2678 4.48223C19.7366 4.95107 20 5.58696 20 6.25V8.75M15 15V15.0125M3.75 16.25C7.23948 18.0084 11.0925 18.9243 15 18.9243C18.9075 18.9243 22.7605 18.0084 26.25 16.25M3.75 11.25C3.75 10.587 4.01339 9.95107 4.48223 9.48223C4.95107 9.01339 5.58696 8.75 6.25 8.75H23.75C24.413 8.75 25.0489 9.01339 25.5178 9.48223C25.9866 9.95107 26.25 10.587 26.25 11.25V22.5C26.25 23.163 25.9866 23.7989 25.5178 24.2678C25.0489 24.7366 24.413 25 23.75 25H6.25C5.58696 25 4.95107 24.7366 4.48223 24.2678C4.01339 23.7989 3.75 23.163 3.75 22.5V11.25Z" stroke="#8A8170" stroke-width="2" stroke-linecap="round" stroke-linejoin="round"/>
</g>
</svg>
