<svg preserveAspectRatio="xMidYMid meet" width="100%" height="100%" overflow="visible" style="display: block;" viewBox="0 0 24 24" fill="none" xmlns="http://www.w3.org/2000/svg">
<g id="mdi-light:cloud">
<g id="Vector">
<path d="M14 4H20V10H14V4Z" stroke="#8A8170" stroke-width="2" stroke-linecap="round" stroke-linejoin="round"/>
<path d="M4 14H10V20H4V14Z" stroke="#8A8170" stroke-width="2" stroke-linecap="round" stroke-linejoin="round"/>
<path d="M14 17C14 17.7956 14.3161 18.5587 14.8787 19.1213C15.4413 19.6839 16.2044 20 17 20C17.7956 20 18.5587 19.6839 19.1213 19.1213C19.6839 18.5587 20 17.7956 20 17C20 16.2044 19.6839 15.4413 19.1213 14.8787C18.5587 14.3161 17.7956 14 17 14C16.2044 14 15.4413 14.3161 14.8787 14.8787C14.3161 15.4413 14 16.2044 14 17Z" stroke="#8A8170" stroke-width="2" stroke-linecap="round" stroke-linejoin="round"/>
<path d="M4.22836 8.14805C4.0776 7.78407 4 7.39397 4 7C4 6.60603 4.0776 6.21593 4.22836 5.85195C4.37913 5.48797 4.6001 5.15726 4.87868 4.87868C5.15726 4.6001 5.48797 4.37913 5.85195 4.22836C6.21593 4.0776 6.60603 4 7 4C7.39397 4 7.78407 4.0776 8.14805 4.22836C8.51203 4.37913 8.84274 4.6001 9.12132 4.87868C9.3999 5.15726 9.62087 5.48797 9.77164 5.85195C9.9224 6.21593 10 6.60603 10 7C10 7.39397 9.9224 7.78407 9.77164 8.14805C9.62087 8.51203 9.3999 8.84274 9.12132 9.12132C8.84274 9.3999 8.51203 9.62087 8.14805 9.77164C7.78407 9.9224 7.39397 10 7 10C6.60603 10 6.21593 9.9224 5.85195 9.77164C5.48797 9.62087 5.15726 9.3999 4.87868 9.12132C4.6001 8.84274 4.37913 8.51203 4.22836 8.14805Z" stroke="#8A8170" stroke-width="2" stroke-linecap="round" stroke-linejoin="round"/>
</g>
</g>
</svg>
