<svg preserveAspectRatio="xMidYMid meet" width="100%" height="100%" overflow="visible" style="display: block;" viewBox="0 0 21 25" fill="none" xmlns="http://www.w3.org/2000/svg">
<path id="Vector" d="M13.6667 1V6.11111C13.6667 6.45 13.8001 6.77501 14.0377 7.01464C14.2752 7.25427 14.5974 7.38889 14.9333 7.38889H20M20 7.38889L13.6667 1H8.6C7.92812 1 7.28376 1.26925 6.80866 1.7485C6.33357 2.22776 6.06667 2.87778 6.06667 3.55556V16.3333C6.06667 17.0111 6.33357 17.6611 6.80866 18.1404C7.28376 18.6196 7.92812 18.8889 8.6 18.8889H17.4667C18.1385 18.8889 18.7829 18.6196 19.258 18.1404C19.7331 17.6611 20 17.0111 20 16.3333V7.38889ZM14.9333 18.8889V21.4444C14.9333 22.1222 14.6664 22.7722 14.1913 23.2515C13.7162 23.7308 13.0719 24 12.4 24H3.53333C2.86145 24 2.21709 23.7308 1.742 23.2515C1.2669 22.7722 1 22.1222 1 21.4444V8.66667C1 7.98889 1.2669 7.33888 1.742 6.85962C2.21709 6.38036 2.86145 6.11111 3.53333 6.11111H6.06667" stroke="#8A8170" stroke-width="2" stroke-linecap="round" stroke-linejoin="round"/>
</svg>
