<svg preserveAspectRatio="none" width="100%" height="100%" overflow="visible" style="display: block;" viewBox="0 0 24 24" fill="none" xmlns="http://www.w3.org/2000/svg">
<g id="pixel:check-box">
<path id="Vector" d="M19 9V10H18V11H17V12H16V13H15V14H14V15H13V16H12V17H10V16H9V15H8V14H7V13H6V12H5V11H6V10H7V9H8V10H9V11H10V12H12V11H13V10H14V9H15V8H16V7H17V8H18V9H19Z" fill="var(--fill-0, #ED6E6E)"/>
<path id="Vector_2" d="M22 2V1H2V2H1V22H2V23H22V22H23V2H22ZM21 21H3V3H21V21Z" fill="var(--fill-0, #ED6E6E)"/>
</g>
</svg>
