<svg preserveAspectRatio="none" width="100%" height="100%" overflow="visible" style="display: block;" viewBox="0 0 75 75" fill="none" xmlns="http://www.w3.org/2000/svg">
<path id="Vector" d="M37.5 67.5C45.4565 67.5 53.0871 64.3393 58.7132 58.7132C64.3393 53.0871 67.5 45.4565 67.5 37.5C67.5 29.5435 64.3393 21.9129 58.7132 16.2868C53.0871 10.6607 45.4565 7.5 37.5 7.5C29.5435 7.5 21.9129 10.6607 16.2868 16.2868C10.6607 21.9129 7.5 29.5435 7.5 37.5C7.5 45.4565 10.6607 53.0871 16.2868 58.7132C21.9129 64.3393 29.5435 67.5 37.5 67.5ZM37.5 75C16.7887 75 0 58.2113 0 37.5C0 16.7887 16.7887 0 37.5 0C58.2112 0 75 16.7887 75 37.5C75 58.2113 58.2112 75 37.5 75ZM23.25 30L18.75 25.5L21.75 22.5L26.25 27L30.75 22.5L33.75 25.5L29.25 30L33.75 34.5L30.75 37.5L26.25 33L21.75 37.5L18.75 34.5L23.25 30ZM45.75 30L41.25 25.5L44.25 22.5L48.75 27L53.25 22.5L56.25 25.5L51.75 30L56.25 34.5L53.25 37.5L48.75 33L44.25 37.5L41.25 34.5L45.75 30ZM37.5 56.25C39.4891 56.25 41.3968 55.4598 42.8033 54.0533C44.2098 52.6468 45 50.7391 45 48.75C45 46.7609 44.2098 44.8532 42.8033 43.4467C41.3968 42.0402 39.4891 41.25 37.5 41.25C35.5109 41.25 33.6032 42.0402 32.1967 43.4467C30.7902 44.8532 30 46.7609 30 48.75C30 50.7391 30.7902 52.6468 32.1967 54.0533C33.6032 55.4598 35.5109 56.25 37.5 56.25Z" fill="var(--fill-0, #ED6E6E)"/>
</svg>
