<svg preserveAspectRatio="none" width="100%" height="100%" overflow="visible" style="display: block;" viewBox="0 0 25 25" fill="none" xmlns="http://www.w3.org/2000/svg">
<path id="Vector" d="M12.5 22.5C15.1522 22.5 17.6957 21.4464 19.5711 19.5711C21.4464 17.6957 22.5 15.1522 22.5 12.5C22.5 9.84784 21.4464 7.3043 19.5711 5.42893C17.6957 3.55357 15.1522 2.5 12.5 2.5C9.84783 2.5 7.3043 3.55357 5.42893 5.42893C3.55357 7.3043 2.5 9.84784 2.5 12.5C2.5 15.1522 3.55357 17.6957 5.42893 19.5711C7.3043 21.4464 9.84783 22.5 12.5 22.5ZM12.5 25C5.59625 25 0 19.4037 0 12.5C0 5.59625 5.59625 0 12.5 0C19.4037 0 25 5.59625 25 12.5C25 19.4037 19.4037 25 12.5 25ZM7.75 10L6.25 8.5L7.25 7.5L8.75 9L10.25 7.5L11.25 8.5L9.75 10L11.25 11.5L10.25 12.5L8.75 11L7.25 12.5L6.25 11.5L7.75 10ZM15.25 10L13.75 8.5L14.75 7.5L16.25 9L17.75 7.5L18.75 8.5L17.25 10L18.75 11.5L17.75 12.5L16.25 11L14.75 12.5L13.75 11.5L15.25 10ZM12.5 18.75C13.163 18.75 13.7989 18.4866 14.2678 18.0178C14.7366 17.5489 15 16.913 15 16.25C15 15.587 14.7366 14.9511 14.2678 14.4822C13.7989 14.0134 13.163 13.75 12.5 13.75C11.837 13.75 11.2011 14.0134 10.7322 14.4822C10.2634 14.9511 10 15.587 10 16.25C10 16.913 10.2634 17.5489 10.7322 18.0178C11.2011 18.4866 11.837 18.75 12.5 18.75Z" fill="var(--fill-0, #ED6E6E)"/>
</svg>
