<svg preserveAspectRatio="none" width="100%" height="100%" overflow="visible" style="display: block;" viewBox="0 0 22.5 22.5" fill="none" xmlns="http://www.w3.org/2000/svg">
<g id="Group">
<path id="Vector" d="M5.8635 9.82913C5.96363 9.52875 6.18188 9.06187 6.48563 8.68837C6.80063 8.30137 7.08525 8.15625 7.3125 8.15625C7.53975 8.15625 7.82437 8.3025 8.13937 8.68837C8.44312 9.06187 8.66138 9.52875 8.7615 9.82913L10.3624 9.29587C10.1551 8.69074 9.84621 8.12538 9.44888 7.62413C9 7.07288 8.2845 6.46875 7.3125 6.46875C6.3405 6.46875 5.625 7.074 5.17613 7.62413C4.77839 8.1253 4.46908 8.69066 4.2615 9.29587L5.8635 9.82913ZM13.7385 9.82913C13.8386 9.52875 14.0569 9.06187 14.3606 8.68837C14.6756 8.30137 14.9603 8.15625 15.1875 8.15625C15.4148 8.15625 15.6994 8.3025 16.0144 8.68837C16.3181 9.06187 16.5364 9.52875 16.6365 9.82913L18.2385 9.29587C18.0306 8.69059 17.7209 8.12522 17.3228 7.62413C16.8761 7.07288 16.1595 6.46875 15.1875 6.46875C14.2155 6.46875 13.5 7.074 13.0511 7.62413C12.6538 8.12538 12.3449 8.69074 12.1376 9.29587L13.7385 9.82913Z" fill="var(--fill-0, #ED6E6E)"/>
<path id="Vector_2" fill-rule="evenodd" clip-rule="evenodd" d="M17.1562 12.0938V12.9375C17.1562 14.5039 16.534 16.0062 15.4263 17.1138C14.3187 18.2215 12.8164 18.8438 11.25 18.8438C9.68357 18.8438 8.18129 18.2215 7.07365 17.1138C5.96601 16.0062 5.34375 14.5039 5.34375 12.9375V12.0938H17.1562ZM7.11675 13.7812C7.31148 14.7337 7.8292 15.5897 8.58234 16.2045C9.33548 16.8192 10.2778 17.155 11.25 17.155C12.2222 17.155 13.1645 16.8192 13.9177 16.2045C14.6708 15.5897 15.1885 14.7337 15.3832 13.7812H7.11675Z" fill="var(--fill-0, #ED6E6E)"/>
<path id="Vector_3" fill-rule="evenodd" clip-rule="evenodd" d="M11.25 0C5.03663 0 0 5.03663 0 11.25C0 17.4634 5.03663 22.5 11.25 22.5C17.4634 22.5 22.5 17.4634 22.5 11.25C22.5 5.03663 17.4634 0 11.25 0ZM2.25 11.25C2.25 8.86305 3.19821 6.57387 4.88604 4.88604C6.57387 3.19821 8.86305 2.25 11.25 2.25C13.6369 2.25 15.9261 3.19821 17.614 4.88604C19.3018 6.57387 20.25 8.86305 20.25 11.25C20.25 13.6369 19.3018 15.9261 17.614 17.614C15.9261 19.3018 13.6369 20.25 11.25 20.25C8.86305 20.25 6.57387 19.3018 4.88604 17.614C3.19821 15.9261 2.25 13.6369 2.25 11.25Z" fill="var(--fill-0, #ED6E6E)"/>
</g>
</svg>
