<svg preserveAspectRatio="none" width="100%" height="100%" overflow="visible" style="display: block;" viewBox="0 0 17.5 17.5" fill="none" xmlns="http://www.w3.org/2000/svg">
<path id="Vector" d="M3.56597 14.838C3.78598 14.1058 4.23617 13.4639 4.84975 13.0078C5.46333 12.5516 6.20761 12.3053 6.97219 12.3056H10.5278C11.2933 12.3053 12.0385 12.5521 12.6525 13.0094C13.2666 13.4666 13.7166 14.1098 13.9358 14.8433M0.75 8.75C0.75 9.80058 0.956926 10.8409 1.35896 11.8115C1.761 12.7821 2.35028 13.664 3.09315 14.4069C3.83601 15.1497 4.71793 15.739 5.68853 16.141C6.65914 16.5431 7.69943 16.75 8.75 16.75C9.80058 16.75 10.8409 16.5431 11.8115 16.141C12.7821 15.739 13.664 15.1497 14.4069 14.4069C15.1497 13.664 15.739 12.7821 16.141 11.8115C16.5431 10.8409 16.75 9.80058 16.75 8.75C16.75 7.69943 16.5431 6.65914 16.141 5.68853C15.739 4.71793 15.1497 3.83601 14.4069 3.09315C13.664 2.35028 12.7821 1.761 11.8115 1.35896C10.8409 0.956926 9.80058 0.75 8.75 0.75C7.69943 0.75 6.65914 0.956926 5.68853 1.35896C4.71793 1.761 3.83601 2.35028 3.09315 3.09315C2.35028 3.83601 1.761 4.71793 1.35896 5.68853C0.956926 6.65914 0.75 7.69943 0.75 8.75ZM6.08333 6.97222C6.08333 7.67947 6.36428 8.35774 6.86438 8.85784C7.36448 9.35794 8.04276 9.63889 8.75 9.63889C9.45724 9.63889 10.1355 9.35794 10.6356 8.85784C11.1357 8.35774 11.4167 7.67947 11.4167 6.97222C11.4167 6.26498 11.1357 5.5867 10.6356 5.0866C10.1355 4.58651 9.45724 4.30556 8.75 4.30556C8.04276 4.30556 7.36448 4.58651 6.86438 5.0866C6.36428 5.5867 6.08333 6.26498 6.08333 6.97222Z" stroke="var(--stroke-0, #8A8170)" stroke-width="1.5" stroke-linecap="round" stroke-linejoin="round"/>
</svg>
