<svg preserveAspectRatio="none" width="100%" height="100%" overflow="visible" style="display: block;" viewBox="0 0 20 20" fill="none" xmlns="http://www.w3.org/2000/svg">
<g id="tabler-icon-home">
<path id="Vector" d="M7.5 17.5V12.5C7.5 12.058 7.67559 11.634 7.98816 11.3215C8.30072 11.0089 8.72464 10.8333 9.16667 10.8333H10.8333C11.2754 10.8333 11.6993 11.0089 12.0118 11.3215C12.3244 11.634 12.5 12.058 12.5 12.5V17.5M4.16667 10H2.5L10 2.5L17.5 10H15.8333V15.8333C15.8333 16.2754 15.6577 16.6993 15.3452 17.0118C15.0326 17.3244 14.6087 17.5 14.1667 17.5H5.83333C5.39131 17.5 4.96738 17.3244 4.65482 17.0118C4.34226 16.6993 4.16667 16.2754 4.16667 15.8333V10Z" stroke="var(--stroke-0, #EC6C6C)" stroke-width="1.5" stroke-linecap="round" stroke-linejoin="round"/>
</g>
</svg>
